<?xml version="1.0" encoding="utf-8"?>
<!-- Generator: Adobe Illustrator 16.0.0, SVG Export Plug-In . SVG Version: 6.00 Build 0)  -->
<!DOCTYPE svg PUBLIC "-//W3C//DTD SVG 1.1//EN" "http://www.w3.org/Graphics/SVG/1.1/DTD/svg11.dtd">
<svg version="1.1"  xmlns="http://www.w3.org/2000/svg" xmlns:xlink="http://www.w3.org/1999/xlink" x="0px" y="0px"
	 width="48px" height="48px" viewBox="0 0 48 48" enable-background="new 0 0 48 48" xml:space="preserve">
<g>
	<g>
		<path fill="none" stroke="#000000" stroke-width="2" stroke-linecap="round" stroke-linejoin="round" stroke-miterlimit="10" d="
			M47,24.001c0,12.701-10.298,22.998-23.002,22.998C11.297,46.999,1,36.702,1,24.001c0-12.702,10.297-23,22.998-23
			c7.144,0,13.53,3.261,17.745,8.369"/>
		
			<polyline fill="none" stroke="#000000" stroke-width="2" stroke-linecap="round" stroke-linejoin="round" stroke-miterlimit="10" points="
			43.7,4.116 43.239,11.216 36.022,10.06 		"/>
	</g>
	<g>
		<path d="M11.271,31.944v-1.352l1.725-1.677c4.157-3.957,6.037-6.061,6.059-8.516c0-1.65-0.801-3.18-3.229-3.18
			c-1.479,0-2.703,0.752-3.457,1.377l-0.699-1.554c1.129-0.95,2.731-1.652,4.607-1.652c3.504,0,4.985,2.404,4.985,4.732
			c0,3.005-2.18,5.437-5.61,8.739l-1.305,1.204v0.051h7.313v1.826H11.271z"/>
		<path d="M30.926,31.944v-4.43h-7.561v-1.453l7.257-10.395h2.382v10.119h2.276v1.729h-2.276v4.43H30.926z M30.926,25.786v-5.434
			c0-0.853,0.021-1.703,0.073-2.555h-0.073c-0.505,0.954-0.903,1.652-1.352,2.402l-3.983,5.536v0.051H30.926z"/>
	</g>
</g>
</svg>
