<?xml version="1.0" encoding="utf-8"?>
<!-- Generator: Adobe Illustrator 16.0.0, SVG Export Plug-In . SVG Version: 6.00 Build 0)  -->
<!DOCTYPE svg PUBLIC "-//W3C//DTD SVG 1.1//EN" "http://www.w3.org/Graphics/SVG/1.1/DTD/svg11.dtd">
<svg version="1.1"  xmlns="http://www.w3.org/2000/svg" xmlns:xlink="http://www.w3.org/1999/xlink" x="0px" y="0px"
	 width="48px" height="48px" viewBox="0 0 48 48" enable-background="new 0 0 48 48" xml:space="preserve">
<g>
	<g>
		<path fill="none" stroke="#000000" stroke-width="2" stroke-linecap="round" stroke-linejoin="round" stroke-miterlimit="10" d="
			M46.633,23.759c0.202,0.512-0.083,0.93-0.633,0.93H2c-0.55,0-0.844-0.422-0.654-0.938L6.813,8.947
			c0.19-0.516,0.796-0.938,1.346-0.938h31.262c0.55,0,1.165,0.418,1.367,0.93L46.633,23.759z"/>
	</g>
	<path fill="none" stroke="#000000" stroke-width="2" stroke-linecap="round" stroke-linejoin="round" stroke-miterlimit="10" d="
		M29.525,15.924c0.344,2.645-2.15,5.004-5.591,5.004c-3.435,0-5.977-2.362-5.713-5.004c0.251-2.387,2.746-4.158,5.601-4.158
		C26.68,11.767,29.223,13.537,29.525,15.924z"/>
	<g>
		<path d="M12.361,15.009c-0.16,0.736-1.042,1.351-1.975,1.351s-1.512-0.614-1.305-1.351c0.2-0.717,1.076-1.288,1.957-1.288
			C11.923,13.721,12.521,14.292,12.361,15.009z"/>
		<path d="M38.667,15.009c0.227,0.736-0.343,1.351-1.271,1.351s-1.835-0.614-2.011-1.351c-0.166-0.717,0.406-1.288,1.29-1.288
			C37.556,13.721,38.448,14.292,38.667,15.009z"/>
	</g>
	
		<line fill="none" stroke="#000000" stroke-width="2" stroke-linecap="round" stroke-linejoin="round" stroke-miterlimit="10" x1="2.548" y1="29.752" x2="45.45" y2="29.752"/>
	
		<line fill="none" stroke="#000000" stroke-width="2" stroke-linecap="round" stroke-linejoin="round" stroke-miterlimit="10" x1="2.548" y1="34.871" x2="45.45" y2="34.871"/>
	
		<line fill="none" stroke="#000000" stroke-width="2" stroke-linecap="round" stroke-linejoin="round" stroke-miterlimit="10" x1="2.548" y1="39.991" x2="45.45" y2="39.991"/>
</g>
</svg>
