<?xml version="1.0" encoding="utf-8"?>
<!-- Generator: Adobe Illustrator 16.0.0, SVG Export Plug-In . SVG Version: 6.00 Build 0)  -->
<!DOCTYPE svg PUBLIC "-//W3C//DTD SVG 1.1//EN" "http://www.w3.org/Graphics/SVG/1.1/DTD/svg11.dtd">
<svg version="1.1"  xmlns="http://www.w3.org/2000/svg" xmlns:xlink="http://www.w3.org/1999/xlink" x="0px" y="0px"
	 width="48px" height="48px" viewBox="0 0 48 48" enable-background="new 0 0 48 48" xml:space="preserve">
<g>
	<polygon fill="none" stroke="#000000" stroke-width="2" stroke-miterlimit="10" points="39.561,23.692 14.497,42.395 1,24.31 
		26.065,5.605 33.736,6.41 40.591,15.597 	"/>
	<circle fill="none" stroke="#000000" stroke-width="2" stroke-miterlimit="10" cx="32.002" cy="15.254" r="3.024"/>
	<path fill="none" stroke="#000000" stroke-width="2" stroke-miterlimit="10" d="M38.216,11.811
		c0.185-0.472,3.386-0.449,4.136-0.202c0.52,0.17,0.901,0.709,1.345,1c0.663,0.43,1.37,0.76,1.939,1.342
		c1.997,2.046,1.662,5.898-0.098,8.019c-1.819,2.194-3.905,3.178-4.077,6.27c-0.09,1.603,0.09,3.073,0.907,4.442
		c0.623,1.044,1.269,1.953,1.264,3.229c-0.009,2.394-1.979,3.483-4.093,3.717c-1.702,0.189-3.449,0.506-5.146,0.083
		c-1.473-0.369-2.736-1.202-4.301-1.182"/>
	<path fill="none" stroke="#000000" stroke-width="2" stroke-miterlimit="10" d="M38.247,11.629
		c0.017,0.715-0.439,1.426-0.985,1.847c-0.296,0.227-0.658,0.397-1.014,0.503c-0.356,0.107-0.736,0.285-1.098,0.356
		c-0.595,0.116-1.517,0.25-1.95-0.294c-0.325-0.408-0.146-0.871,0.07-1.262"/>
</g>
</svg>
