<?xml version="1.0" encoding="utf-8"?>
<!-- Generator: Adobe Illustrator 16.0.0, SVG Export Plug-In . SVG Version: 6.00 Build 0)  -->
<!DOCTYPE svg PUBLIC "-//W3C//DTD SVG 1.1//EN" "http://www.w3.org/Graphics/SVG/1.1/DTD/svg11.dtd">
<svg version="1.1"  xmlns="http://www.w3.org/2000/svg" xmlns:xlink="http://www.w3.org/1999/xlink" x="0px" y="0px"
	 width="48px" height="48px" viewBox="0 0 48 48" enable-background="new 0 0 48 48" xml:space="preserve">
<g>
	<path fill-rule="evenodd" clip-rule="evenodd" d="M47.294,13.25l-11.736,2.195l-5.813,17.559c-0.639-0.342-0.973-0.447-1.709-0.58
		l5.809-17.551l0,0l0.363-1.187l12.541-2.096c0.641-0.11,1.107-0.031,1.217,0.607C48.077,12.838,47.935,13.14,47.294,13.25z
		 M24.892,32.539c-1.185,0.305-2.251,0.947-3.08,1.857l-0.377,0.416L0,27.635L8.111,3.301l10.766,3.597l-2.111,6.476l2.186,0.749
		l2.17-6.476l11.275,3.768l-7.049,21.01L24.892,32.539z M22.207,9.825l-2.174,6.488l-5.432-1.86l2.107-6.463L9.201,5.48
		L2.179,26.549l18.758,6.281c0.875-0.836,1.92-1.459,3.068-1.828l6.208-18.501L22.207,9.825z M13.871,25.049l-0.961,2.814
		l-5.404-7.971l9.148-3.005l-0.959,2.814l5.633,1.92l-1.826,5.349L13.871,25.049z M13.509,20.776l0.398-1.175l-3.697,1.214
		l2.186,3.222l0.4-1.175l5.633,1.923l0.711-2.088L13.509,20.776z M2.113,31.313l17.883,5.814c-0.25,0.727-0.387,0.898-0.387,1.713
		c-0.074-0.012-0.146-0.025-0.219-0.049L1.375,32.934c-0.617-0.205-0.789-0.633-0.586-1.248C0.994,31.07,1.496,31.107,2.113,31.313z
		 M26.749,34.197c2.9,0,5.252,2.35,5.252,5.25s-2.352,5.252-5.252,5.252c-2.9,0-5.251-2.352-5.251-5.252
		S23.849,34.197,26.749,34.197z M26.749,43.178c2.061,0,3.73-1.67,3.73-3.73s-1.67-3.73-3.73-3.73s-3.73,1.67-3.73,3.73
		S24.688,43.178,26.749,43.178z M26.747,38.256c0.656,0,1.186,0.531,1.186,1.186c0,0.656-0.529,1.188-1.186,1.188
		c-0.654,0-1.186-0.531-1.186-1.188C25.562,38.787,26.093,38.256,26.747,38.256z"/>
</g>
</svg>
