<?xml version="1.0" encoding="utf-8"?>
<!-- Generator: Adobe Illustrator 16.0.0, SVG Export Plug-In . SVG Version: 6.00 Build 0)  -->
<!DOCTYPE svg PUBLIC "-//W3C//DTD SVG 1.1//EN" "http://www.w3.org/Graphics/SVG/1.1/DTD/svg11.dtd">
<svg version="1.1"  xmlns="http://www.w3.org/2000/svg" xmlns:xlink="http://www.w3.org/1999/xlink" x="0px" y="0px"
	 width="48px" height="48px" viewBox="0 0 48 48" enable-background="new 0 0 48 48" xml:space="preserve">
<g>
	<g>
		<path d="M27.582,23.892l-0.57-0.807c-0.453,0.225-0.855,0.359-1.209,0.402s-0.727-0.019-1.123-0.184
			c-0.394-0.163-0.755-0.445-1.081-0.842l0.73-0.708c0.372,0.39,0.71,0.634,1.017,0.727c0.439,0.133,0.833,0.107,1.183-0.079
			l-1.817-2.569c-0.386,0.164-0.827,0.268-1.324,0.311c-0.366,0.033-0.711-0.032-1.035-0.19c-0.324-0.16-0.599-0.399-0.829-0.723
			c-0.405-0.574-0.524-1.178-0.356-1.813c0.113-0.427,0.426-0.849,0.941-1.269l-0.273-0.385l0.492-0.326l0.271,0.386
			c0.519-0.276,1-0.393,1.447-0.351c0.571,0.051,1.075,0.308,1.512,0.771l-0.773,0.697c-0.275-0.285-0.548-0.459-0.823-0.525
			c-0.276-0.066-0.568-0.036-0.879,0.09l1.646,2.329c0.492-0.177,0.825-0.282,1.003-0.314c0.337-0.062,0.644-0.067,0.919-0.017
			c0.277,0.05,0.535,0.155,0.778,0.314c0.243,0.16,0.453,0.368,0.633,0.622c0.396,0.559,0.541,1.147,0.438,1.765
			c-0.104,0.617-0.438,1.132-1.004,1.546l0.577,0.818L27.582,23.892z M22.584,16.821c-0.29,0.263-0.457,0.558-0.5,0.885
			c-0.043,0.328,0.033,0.63,0.229,0.909c0.195,0.274,0.437,0.452,0.728,0.532c0.291,0.08,0.665,0.05,1.122-0.092L22.584,16.821z
			 M27.021,22.078c0.297-0.254,0.47-0.568,0.516-0.941c0.047-0.374-0.052-0.733-0.295-1.076c-0.208-0.294-0.447-0.48-0.725-0.558
			c-0.275-0.078-0.688-0.04-1.235,0.117L27.021,22.078z"/>
	</g>
	<g>
		<path d="M14.197,26.789c0.612,0.866,0.384,2.048-0.511,2.639c-0.893,0.592-2.114,0.371-2.725-0.496
			c-0.612-0.864-0.383-2.045,0.511-2.637C12.365,25.703,13.584,25.924,14.197,26.789z"/>
		<path d="M38.904,10.425c0.61,0.866,0.382,2.046-0.511,2.64c-0.895,0.591-2.115,0.37-2.727-0.496
			c-0.612-0.865-0.382-2.046,0.511-2.638C37.072,9.339,38.293,9.562,38.904,10.425z"/>
	</g>
	<path fill="none" stroke="#000000" stroke-width="2" stroke-miterlimit="10" d="M30.076,16.273c2.079,2.942,1.461,6.853-1.38,8.731
		c-2.84,1.882-6.827,1.022-8.908-1.918c-2.079-2.941-1.461-6.852,1.378-8.732C24.006,12.473,27.994,13.332,30.076,16.273z"/>
	<polygon fill="none" stroke="#000000" stroke-width="2" stroke-miterlimit="10" points="47,16.289 13.673,38.36 2.865,23.072 
		36.192,1 	"/>
	<polyline fill="none" stroke="#000000" stroke-width="2" stroke-miterlimit="10" points="2.104,26.979 13.261,42.763 
		46.854,20.516 	"/>
	<polyline fill="none" stroke="#000000" stroke-width="2" stroke-miterlimit="10" points="1,31.216 12.158,47 45.75,24.752 	"/>
</g>
</svg>
