<?xml version="1.0" encoding="utf-8"?>
<!-- Generator: Adobe Illustrator 16.0.0, SVG Export Plug-In . SVG Version: 6.00 Build 0)  -->
<!DOCTYPE svg PUBLIC "-//W3C//DTD SVG 1.1//EN" "http://www.w3.org/Graphics/SVG/1.1/DTD/svg11.dtd">
<svg version="1.1"  xmlns="http://www.w3.org/2000/svg" xmlns:xlink="http://www.w3.org/1999/xlink" x="0px" y="0px"
	 width="48px" height="48px" viewBox="0 0 48 48" enable-background="new 0 0 48 48" xml:space="preserve">
<g>
	<path fill="none" stroke="#000000" stroke-width="2" stroke-linecap="round" stroke-linejoin="round" stroke-miterlimit="10" d="
		M40.372,25.24c-4.715-6.164-3.902-13.772-3.902-13.772S36.876,1,24,1C11.12,1,11.527,11.468,11.527,11.468
		s0.819,7.608-3.898,13.772c-1.829,2.389-4.156,9.481-4.156,9.481H24h20.527C44.527,34.722,42.195,27.629,40.372,25.24z"/>
	<path fill="none" stroke="#000000" stroke-width="2" stroke-linecap="round" stroke-linejoin="round" stroke-miterlimit="10" d="
		M32.159,34.689c0.449,1.061,0.7,2.223,0.7,3.448C32.859,43.03,28.891,47,24,47c-4.892,0-8.858-3.97-8.858-8.862
		c0-1.211,0.24-2.364,0.685-3.416"/>
</g>
</svg>
