<?xml version="1.0" encoding="utf-8"?>
<!-- Generator: Adobe Illustrator 16.0.0, SVG Export Plug-In . SVG Version: 6.00 Build 0)  -->
<!DOCTYPE svg PUBLIC "-//W3C//DTD SVG 1.1//EN" "http://www.w3.org/Graphics/SVG/1.1/DTD/svg11.dtd">
<svg version="1.1"  xmlns="http://www.w3.org/2000/svg" xmlns:xlink="http://www.w3.org/1999/xlink" x="0px" y="0px"
	 width="48px" height="48px" viewBox="0 0 48 48" enable-background="new 0 0 48 48" xml:space="preserve">
<g>
	<path fill="none" stroke="#000000" stroke-width="2" stroke-linecap="round" stroke-linejoin="round" stroke-miterlimit="10" d="
		M28.874,1c-2.056,0-3.848,0.994-4.875,2.472C22.975,1.994,21.184,1,19.126,1c-3.192,0-5.785,2.384-5.785,5.324
		c0,2.943,5.235,7.889,10.658,12.884c5.089-4.682,10.659-9.941,10.659-12.884C34.658,3.384,32.068,1,28.874,1z"/>
	<g>
		<path fill="none" stroke="#000000" stroke-width="2" stroke-linecap="round" stroke-linejoin="round" stroke-miterlimit="10" d="
			M44.612,30.951c0-1.898-1.075-3.542-2.69-4.487c1.615-0.946,2.69-2.594,2.69-4.487c0-2.939-2.587-5.323-5.783-5.323
			s-8.567,4.812-13.995,9.811c5.085,4.678,10.802,9.808,13.995,9.808C42.025,36.271,44.612,33.891,44.612,30.951z"/>
		<path fill="none" stroke="#000000" stroke-width="2" stroke-linecap="round" stroke-linejoin="round" stroke-miterlimit="10" d="
			M3.387,30.951c0-1.898,1.076-3.542,2.691-4.487c-1.615-0.946-2.691-2.594-2.691-4.487c0-2.939,2.587-5.323,5.786-5.323
			c3.195,0,8.565,4.812,13.994,9.811c-5.086,4.678-10.805,9.808-14,9.808C5.974,36.271,3.387,33.891,3.387,30.951z"/>
	</g>
	<path fill="none" stroke="#000000" stroke-width="2" stroke-linecap="round" stroke-linejoin="round" stroke-miterlimit="10" d="
		M23.999,28.828c0,0-1.948,11.578,6.484,18.172"/>
</g>
</svg>
