<?xml version="1.0" encoding="utf-8"?>
<!-- Generator: Adobe Illustrator 16.0.0, SVG Export Plug-In . SVG Version: 6.00 Build 0)  -->
<!DOCTYPE svg PUBLIC "-//W3C//DTD SVG 1.1//EN" "http://www.w3.org/Graphics/SVG/1.1/DTD/svg11.dtd">
<svg version="1.1"  xmlns="http://www.w3.org/2000/svg" xmlns:xlink="http://www.w3.org/1999/xlink" x="0px" y="0px"
	 width="48px" height="48px" viewBox="0 0 48 48" enable-background="new 0 0 48 48" xml:space="preserve">
<g>
	<path fill="none" stroke="#000000" stroke-width="2" stroke-linejoin="round" stroke-miterlimit="10" d="M23.595,2.945
		c1.333,0,3.712-2.308,4.979-1.896c1.266,0.41,1.835,3.676,2.913,4.46c1.076,0.781,4.359,0.313,5.142,1.391
		c0.782,1.076-0.678,4.052-0.266,5.321c0.411,1.267,3.342,2.817,3.342,4.147c0,1.331-2.931,2.881-3.342,4.148
		c-0.412,1.267,1.048,4.243,0.266,5.321c-0.782,1.076-4.065,0.61-5.142,1.391c-1.078,0.782-1.647,4.049-2.913,4.461
		c-1.267,0.411-3.646-1.896-4.979-1.896c-1.331,0-3.711,2.308-4.977,1.896c-1.267-0.412-1.835-3.679-2.912-4.461
		c-1.078-0.78-4.361-0.314-5.143-1.391c-0.784-1.078,0.676-4.054,0.265-5.321c-0.411-1.267-3.341-2.817-3.341-4.148
		c0-1.331,2.931-2.88,3.341-4.147c0.412-1.269-1.048-4.245-0.265-5.321c0.782-1.078,4.064-0.61,5.143-1.391
		c1.077-0.784,1.645-4.05,2.912-4.46C19.883,0.637,22.264,2.945,23.595,2.945z"/>
	<polyline fill="none" stroke="#000000" stroke-width="2" stroke-linejoin="round" stroke-miterlimit="10" points="16.915,29.205 
		10.383,44.352 16.735,42.361 21.068,47 22.782,30.467 	"/>
	<polyline fill="none" stroke="#000000" stroke-width="2" stroke-linejoin="round" stroke-miterlimit="10" points="27.424,31.557 
		30.078,46.745 34.369,41.656 40.514,43.245 31.401,27.974 	"/>
</g>
</svg>
