<?xml version="1.0" encoding="utf-8"?>
<!-- Generator: Adobe Illustrator 16.0.0, SVG Export Plug-In . SVG Version: 6.00 Build 0)  -->
<!DOCTYPE svg PUBLIC "-//W3C//DTD SVG 1.1//EN" "http://www.w3.org/Graphics/SVG/1.1/DTD/svg11.dtd">
<svg version="1.1"  xmlns="http://www.w3.org/2000/svg" xmlns:xlink="http://www.w3.org/1999/xlink" x="0px" y="0px"
	 width="48px" height="48px" viewBox="0 0 48 48" enable-background="new 0 0 48 48" xml:space="preserve">
<g>
	
		<rect x="10.335" y="23.107" fill="none" stroke="#000000" stroke-width="2" stroke-miterlimit="10" width="26.167" height="7.079"/>
	<polygon fill="none" stroke="#000000" stroke-width="2" stroke-miterlimit="10" points="31.449,47 15.389,47 12.737,30.187 
		34.102,30.187 	"/>
	<path fill="none" stroke="#000000" stroke-width="2" stroke-miterlimit="10" d="M26.333,20.543
		c-0.016-1.028-0.126-2.007-0.388-2.991c-0.285-1.076-0.349-2.166-0.271-3.285c0.116-1.687,1.425-3.703,2.834-4.674
		c3.397-2.343,8.143-1.93,11.504-4.288c0.206,0.928-0.031,2.218-0.031,3.189c0,1.402,0.132,2.886-0.24,4.25
		c-0.617,2.267-2.375,4.883-4.484,6.014c-1.521,0.816-3.347,1.216-5.003,1.604c-1.143,0.268-2.525,0.539-3.702,0.453
		C26.552,20.816,26.338,20.904,26.333,20.543z"/>
	<path fill="none" stroke="#000000" stroke-width="2" stroke-miterlimit="10" d="M19.211,18.931
		c0.246-0.998,0.573-1.924,1.051-2.828c0.52-0.982,0.826-2.029,1.005-3.137c0.265-1.669-0.555-3.929-1.707-5.192
		C16.778,4.725,12.064,4.057,9.319,1C8.91,1.859,8.852,3.169,8.632,4.116c-0.318,1.363-0.78,2.782-0.724,4.193
		c0.091,2.347,1.209,5.295,3.01,6.871c1.298,1.138,2.987,1.939,4.511,2.692c1.054,0.519,2.34,1.095,3.506,1.276
		C18.935,19.148,19.123,19.283,19.211,18.931z"/>
</g>
</svg>
