<?xml version="1.0" encoding="utf-8"?>
<!-- Generator: Adobe Illustrator 16.0.0, SVG Export Plug-In . SVG Version: 6.00 Build 0)  -->
<!DOCTYPE svg PUBLIC "-//W3C//DTD SVG 1.1//EN" "http://www.w3.org/Graphics/SVG/1.1/DTD/svg11.dtd">
<svg version="1.1"  xmlns="http://www.w3.org/2000/svg" xmlns:xlink="http://www.w3.org/1999/xlink" x="0px" y="0px"
	 width="48px" height="48px" viewBox="0 0 48 48" enable-background="new 0 0 48 48" xml:space="preserve">
<g>
	<path fill="none" stroke="#000000" stroke-width="2" stroke-miterlimit="10" d="M45.459,6.858l-6.792,9.956
		c-0.373,0.546-1.121,0.685-1.66,0.305l-5.411-3.802c-0.54-0.38-0.676-1.138-0.302-1.687l6.793-9.956
		c-3.449-0.777-7.032,0.384-8.996,3.262l-2.328,3.414c-2.01,2.948-1.767,6.877,0.294,9.911c-0.146,0.099-0.275,0.23-0.382,0.387
		L11.493,40.904c-0.425,0.622-0.33,1.438,0.21,1.817l5.185,3.645c0.54,0.38,1.328,0.182,1.752-0.439l15.183-22.255
		c0.106-0.157,0.18-0.328,0.221-0.498c3.522,0.891,7.232-0.262,9.242-3.21l2.33-3.412C47.578,13.674,47.39,9.859,45.459,6.858z
		 M16.749,42.523c-0.842,0-1.523-0.692-1.523-1.546s0.681-1.544,1.523-1.544c0.839,0,1.521,0.69,1.521,1.544
		S17.588,42.523,16.749,42.523z"/>
	<path fill="none" stroke="#000000" stroke-width="2" stroke-miterlimit="10" d="M25.114,37.23l5.677,8.956
		c0.456,0.725,1.283,1.021,1.837,0.659l5.438-3.551c0.552-0.361,0.629-1.248,0.17-1.971l-7.85-12.39"/>
	<path fill="none" stroke="#000000" stroke-width="2" stroke-miterlimit="10" d="M25.108,20.608l-1.17-1.846
		c-0.46-0.726-1.286-1.022-1.839-0.661l-0.354,0.23L15.148,7.925l2.266-1.72L19.921,1l-5.655,0.238L1,9.247l4.029,6.356l5.605-4.253
		l6.382,10.072l-0.354,0.228c-0.551,0.363-0.629,1.25-0.171,1.974l3.152,4.971"/>
</g>
</svg>
