<?xml version="1.0" encoding="utf-8"?>
<!-- Generator: Adobe Illustrator 16.0.0, SVG Export Plug-In . SVG Version: 6.00 Build 0)  -->
<!DOCTYPE svg PUBLIC "-//W3C//DTD SVG 1.1//EN" "http://www.w3.org/Graphics/SVG/1.1/DTD/svg11.dtd">
<svg version="1.1"  xmlns="http://www.w3.org/2000/svg" xmlns:xlink="http://www.w3.org/1999/xlink" x="0px" y="0px"
	 width="48px" height="48px" viewBox="0 0 48 48" enable-background="new 0 0 48 48" xml:space="preserve">
<g>
	<path fill="none" stroke="#000000" stroke-width="2" stroke-miterlimit="10" d="M38.728,8.358C38.728,4.311,35.406,1,31.35,1
		H16.195c-4.058,0-7.377,3.311-7.377,7.358c0,0,1.887,17.186,1.902,17.377h26.105C36.841,25.544,38.728,8.358,38.728,8.358z"/>
	<g>
		<line fill="none" stroke="#000000" stroke-width="2" stroke-miterlimit="10" x1="9.455" y1="47" x2="12.331" y2="31.01"/>
		<line fill="none" stroke="#000000" stroke-width="2" stroke-miterlimit="10" x1="38.09" y1="47" x2="35.216" y2="31.01"/>
	</g>
	<g>
		<line fill="none" stroke="#000000" stroke-width="2" stroke-miterlimit="10" x1="18.885" y1="1.62" x2="18.885" y2="25.198"/>
		<line fill="none" stroke="#000000" stroke-width="2" stroke-miterlimit="10" x1="28.66" y1="1.62" x2="28.66" y2="25.198"/>
	</g>
	<g>
		<path fill="none" stroke="#000000" stroke-width="2" stroke-miterlimit="10" d="M41.969,28.373c0,1.45-1.8,2.637-4,2.637H10.031
			c-2.2,0-4-1.187-4-2.637c0-1.451,1.8-2.638,4-2.638h27.938C40.169,25.735,41.969,26.922,41.969,28.373z"/>
	</g>
</g>
</svg>
